# xmcd CD database file
#
# Track frame offsets:
#	150
#	1930
#	32630
#	58195
#	81207
#	102180
#	125705
#	146895
#	167457
#	188217
#	213180
#	239315
#
# Disc length: 3469 seconds
#
# Revision: 0
# Processed by: cddbd v1.5.1PL0 Copyright (c) Steve Scherf et al.
# Submitted via: CDex 1.51
#
DISCID=a00d8b0c
DTITLE=天方直実 - TEARS
DYEAR=1997
DGENRE=J-pop
TTITLE0=＃5397
TTITLE1=WELCOME…IT’S MY TIME，IT’S YOUR TIME
TTITLE2=…tears
TTITLE3=STEP UP・1997
TTITLE4=GET IT，Baby
TTITLE5=恋じゃね。
TTITLE6=glow
TTITLE7=逢いたい君がいない
TTITLE8=can’T
TTITLE9=MOONLIGHT to DAYBREAK
TTITLE10=OVER THE DREAM
TTITLE11=おっきなシアワセ
EXTD=YEAR: 1997
EXTT0=
EXTT1=
EXTT2=
EXTT3=
EXTT4=
EXTT5=
EXTT6=
EXTT7=
EXTT8=
EXTT9=
EXTT10=
EXTT11=
PLAYORDER=
